Coordinates
version=1
nRows=11
nColumns=36
inDegrees=yes

Units are S.I. units (second, meters, Newtons, ...)
If the header above contains a line with 'inDegrees', this indicates whether rotational values are in degrees (yes) or radians (no).

endheader
time	pelvis_tilt	pelvis_list	pelvis_rotation	pelvis_tx	pelvis_ty	pelvis_tz	hip_flexion_r	hip_adduction_r	hip_rotation_r	knee_angle_r	knee_angle_r_beta	ankle_angle_r	subtalar_angle_r	mtp_angle_r	hip_flexion_l	hip_adduction_l	hip_rotation_l	knee_angle_l	knee_angle_l_beta	ankle_angle_l	subtalar_angle_l	mtp_angle_l	lumbar_extension	lumbar_bending	lumbar_rotation	arm_flex_r	arm_add_r	arm_rot_r	elbow_flex_r	pro_sup_r	arm_flex_l	arm_add_l	arm_rot_l	elbow_flex_l	pro_sup_l
      0.00000000	     16.24068701	    -15.13312499	   -119.41437759	      0.56363701	      1.05270613	      0.31760471	      7.95079893	     29.96722886	     19.62635438	     59.13046484	      1.03202130	     14.03238175	    -32.53634679	     -7.52679158	    -18.57753493	    -22.69002105	     39.95679321	     34.95895840	      0.61014893	     38.98814747	     33.73928885	     -7.52679158	    -27.96106054	     -2.99559881	     89.24513262	     16.60898487	    -26.53244030	     81.58486425	     28.24199450	     45.48829612	    -12.90982741	     18.63696522	    -12.24065789	     38.54550220	     87.21198825
      0.01666670	     25.45883442	     -9.28436734	   -117.93527818	      0.58149041	      1.04231989	      0.32925034	     15.77141368	     29.96502670	     17.02481065	     61.72183601	      1.07724926	     29.19195961	    -33.73607944	     -7.52286063	    -12.21375177	    -24.19861577	     39.95641059	     33.77962537	      0.58956568	     49.07286910	     33.66358100	     -7.52286063	    -17.18317901	     -9.86454761	     88.70414879	     16.34639427	    -23.99683412	     71.43484764	     27.14119518	     42.77654855	     -8.13625169	     14.38732211	     -8.39327991	     36.60709761	     86.45833180
      0.03333330	     30.86766916	     -4.29697508	   -117.17295977	      0.59879512	      1.03016798	      0.34061928	     20.72395737	     29.96842115	     13.03908668	     57.54009372	      1.00426409	     47.60346019	    -33.95147410	     -7.51874801	     -8.72397003	    -26.25577720	     39.96088649	     29.26474038	      0.51076607	     49.62217337	     34.52585843	     -7.51874801	     -8.26584700	    -11.72482763	     88.96077935	     16.37498572	    -19.94589856	     69.12949319	     25.08332490	     44.11382548	     -5.67121079	     10.57399036	     -2.21092649	     33.99461821	     83.97307179
      0.05000000	     32.27550136	     -0.30108680	   -117.08009373	      0.65175463	      1.01981620	      0.35113948	     24.93843085	     29.97022591	     10.06877449	     54.68240721	      0.95438805	     49.54102801	    -34.49821698	     -7.51469213	     -5.68208498	    -28.01688520	     39.96406766	     27.23245044	      0.47529592	     49.68083322	     34.63850517	     -7.51469213	     -2.63327112	    -10.49610076	     89.19675870	     15.20968781	    -18.21738560	     71.06772475	     24.17407690	     47.52956845	     -7.27186529	      9.50652545	      2.40185911	     33.39206566	     80.64114833
      0.06666670	     32.08189785	      4.17695232	   -117.70992681	      0.70892785	      1.00701883	      0.35008727	     31.80291218	     29.97083946	      6.85823434	     56.01710062	      0.97768284	     49.74825714	    -34.70350329	     -7.50975422	     -2.41575206	    -30.36634911	     39.96491078	     26.39902447	      0.46074990	     49.77557498	     34.55517746	     -7.50975422	      1.48692499	     -6.12583912	     89.33585090	     13.21204151	    -18.79304670	     76.67153330	     23.81544065	     50.66939979	    -11.55567089	     10.48069153	      7.56127977	     32.93716777	     77.89376704
      0.08333330	     31.75896295	      9.93917310	   -119.20850460	      0.77064616	      0.99769010	      0.35322861	     41.45349836	     29.97147335	      3.70050813	     59.98617967	      1.04695634	     49.82189290	    -34.77824288	     -7.50481642	      1.89306961	    -33.13364457	     39.96523510	     26.44759515	      0.46159761	     49.84937142	     34.37225256	     -7.50481642	      6.83615245	      0.90505860	     89.44315788	     10.17740635	    -20.74523766	     88.95875397	     24.31078415	     52.78020548	    -19.30803054	     12.53902628	     11.45145381	     34.07327922	     73.95251134
      0.10000000	     31.74247146	     13.46844273	   -120.05372784	      0.75250736	      1.00493707	      0.36376599	     45.79845405	     29.97124861	      1.37868810	     60.16010824	      1.04999197	     49.84860216	    -34.81976237	     -7.50176347	      4.03960830	    -34.68369321	     39.96552931	     26.45745290	      0.46176966	     49.88099595	     34.09357413	     -7.50176347	     10.58177776	      4.65940304	     89.50242893	     10.49199084	    -21.72584946	    112.22604822	     26.02123858	     43.10003487	    -24.61175094	     13.30012343	     19.37943798	     35.00241290	     69.80502942
      0.11666670	     31.89098118	     15.51065070	   -119.69402145	      0.75421858	      1.00234134	      0.36723721	     47.87928571	     29.97118798	     -1.22634804	     58.22577121	      1.01623142	     49.86397373	    -34.83322097	     -7.50089098	      4.83132690	    -35.66665622	     39.96691335	     26.20821927	      0.45741972	     49.89905434	     34.10852683	     -7.50089098	     12.43080347	      5.94435394	     89.51559884	     15.98113070	    -20.99864024	    151.45563108	     40.17776230	     27.29607447	    -29.99238752	     13.67893833	     27.65760708	     38.37466693	     70.49096520
      0.13333330	     32.48909000	     16.91126151	   -119.64959635	      0.73865681	      1.00037081	      0.36802432	     48.26536797	     29.97166461	     -1.69280600	     55.69191379	      0.97200726	     49.87643188	    -34.84597479	     -7.50043509	      4.62389766	    -35.56481887	     39.96882813	     25.63396751	      0.44739713	     49.90663488	     34.53511531	     -7.50043509	     12.39916862	      5.84220364	     89.61487078	     22.47798194	    -15.87952178	    179.28127203	     65.52276613	     24.34873608	    -35.04528452	     13.31375444	     35.53403181	     44.64896017	     75.11202033
      0.15000000	     35.08607726	     18.56396368	   -120.31266339	      0.74034001	      0.99331430	      0.36399761	     49.85791563	     29.97412891	     -0.58532417	     53.43568468	      0.93262864	     49.88032019	    -34.83290328	     -7.50013315	      5.88918526	    -34.02678919	     39.97283486	     25.18303358	      0.43952685	     49.89866276	     34.77931585	     -7.50013315	     13.42863163	      3.40538656	     89.74913515	     25.70810486	    -11.39775410	    192.19776067	     90.11178709	     30.81073848	    -42.60714534	     12.86542882	     38.44316315	     55.33922974	     85.32696567
      0.16666670	     38.24599135	     19.75128158	   -121.12535622	      0.70100356	      0.99136936	      0.36639256	     49.82194100	     29.97563137	      2.49771269	     49.15945800	      0.85799440	     49.88276896	    -34.82617864	     -7.50008021	      7.42566723	    -31.55183595	     39.97584493	     24.84719626	      0.43366538	     49.88502819	     34.85611204	     -7.50008021	     15.33333606	     -0.64904081	     89.82201507	     28.14414912	     -7.75387549	    197.35992235	    106.19212109	     38.13779264	    -48.65316630	     11.46062377	     36.29247784	     67.43383723	     95.16758340
